<svg width="75" height="96.48" viewBox="0 0 213 274" fill="none" xmlns="http://www.w3.org/2000/svg">
<path d="M207.956 110.171C207.956 166.273 162.5 211.752 106.427 211.752C50.3547 211.752 4.89868 166.273 4.89868 110.171C4.89868 54.0694 50.3547 8.58929 106.427 8.58929C162.5 8.58929 207.956 54.0694 207.956 110.171Z" fill="#3D3144"/>
<path d="M184.687 68.3577H165.141C164.388 68.3577 163.778 67.7467 163.778 66.9929C163.778 66.24 164.388 65.629 165.141 65.629H184.687C185.441 65.629 186.051 66.24 186.051 66.9929C186.051 67.7467 185.441 68.3577 184.687 68.3577Z" fill="#61ED46"/>
<path d="M146.277 68.3577H66.2453C65.492 68.3577 64.8821 67.7467 64.8821 66.9929C64.8821 66.24 65.492 65.629 66.2453 65.629H146.277C147.03 65.629 147.64 66.24 147.64 66.9929C147.64 67.7467 147.03 68.3577 146.277 68.3577Z" fill="#61ED46"/>
<path d="M53.6207 68.3577H31.4985C30.745 68.3577 30.1353 67.7467 30.1353 66.9929C30.1353 66.24 30.745 65.629 31.4985 65.629H53.6207C54.374 65.629 54.9839 66.24 54.9839 66.9929C54.9839 67.7467 54.374 68.3577 53.6207 68.3577Z" fill="#61ED46"/>
<path d="M184.687 79.728H167.868C167.115 79.728 166.505 79.1169 166.505 78.3632C166.505 77.6094 167.115 76.9993 167.868 76.9993H184.687C185.441 76.9993 186.051 77.6094 186.051 78.3632C186.051 79.1169 185.441 79.728 184.687 79.728Z" fill="#61ED46"/>
<path d="M157.565 79.728H57.0564C56.3039 79.728 55.6931 79.1169 55.6931 78.3632C55.6931 77.6094 56.3039 76.9993 57.0564 76.9993H157.565C158.319 76.9993 158.929 77.6094 158.929 78.3632C158.929 79.1169 158.319 79.728 157.565 79.728Z" fill="#61ED46"/>
<path d="M43.1083 79.728H31.4985C30.745 79.728 30.1353 79.1169 30.1353 78.3632C30.1353 77.6094 30.745 76.9993 31.4985 76.9993H43.1083C43.8616 76.9993 44.4715 77.6094 44.4715 78.3632C44.4715 79.1169 43.8616 79.728 43.1083 79.728Z" fill="#61ED46"/>
<path d="M184.687 91.0982H31.4985C30.745 91.0982 30.1353 90.4872 30.1353 89.7334C30.1353 88.9797 30.745 88.3686 31.4985 88.3686H184.687C185.441 88.3686 186.051 88.9797 186.051 89.7334C186.051 90.4872 185.441 91.0982 184.687 91.0982Z" fill="#61ED46"/>
<path d="M184.687 102.468H55.1362C54.3828 102.468 53.7729 101.857 53.7729 101.104C53.7729 100.35 54.3828 99.7389 55.1362 99.7389H184.687C185.441 99.7389 186.051 100.35 186.051 101.104C186.051 101.857 185.441 102.468 184.687 102.468Z" fill="#61ED46"/>
<path d="M43.1083 102.468H31.4985C30.745 102.468 30.1353 101.857 30.1353 101.104C30.1353 100.35 30.745 99.7389 31.4985 99.7389H43.1083C43.8616 99.7389 44.4715 100.35 44.4715 101.104C44.4715 101.857 43.8616 102.468 43.1083 102.468Z" fill="#61ED46"/>
<path d="M184.687 113.838H174.914C174.161 113.838 173.551 113.227 173.551 112.474C173.551 111.72 174.161 111.109 174.914 111.109H184.687C185.441 111.109 186.051 111.72 186.051 112.474C186.051 113.227 185.441 113.838 184.687 113.838Z" fill="#61ED46"/>
<path d="M165.141 113.838H31.4985C30.745 113.838 30.1353 113.227 30.1353 112.474C30.1353 111.72 30.745 111.109 31.4985 111.109H165.141C165.895 111.109 166.504 111.72 166.504 112.474C166.504 113.227 165.895 113.838 165.141 113.838Z" fill="#61ED46"/>
<path d="M184.687 125.208H31.4985C30.745 125.208 30.1353 124.597 30.1353 123.843C30.1353 123.09 30.745 122.479 31.4985 122.479H184.687C185.441 122.479 186.051 123.09 186.051 123.843C186.051 124.597 185.441 125.208 184.687 125.208Z" fill="#61ED46"/>
<path d="M184.687 136.578H173.658C172.904 136.578 172.293 135.967 172.293 135.214C172.293 134.461 172.904 133.85 173.658 133.85H184.687C185.441 133.85 186.051 134.461 186.051 135.214C186.051 135.967 185.441 136.578 184.687 136.578Z" fill="#61ED46"/>
<path d="M162.079 136.578H61.1971C60.4437 136.578 59.833 135.967 59.833 135.214C59.833 134.461 60.4437 133.85 61.1971 133.85H162.079C162.833 133.85 163.443 134.461 163.443 135.214C163.443 135.967 162.833 136.578 162.079 136.578Z" fill="#61ED46"/>
<path d="M44.5296 136.578H31.4985C30.745 136.578 30.1353 135.967 30.1353 135.214C30.1353 134.461 30.745 133.85 31.4985 133.85H44.5296C45.2829 133.85 45.8928 134.461 45.8928 135.214C45.8928 135.967 45.2829 136.578 44.5296 136.578Z" fill="#61ED46"/>
<path d="M184.687 147.949H160.08C159.326 147.949 158.717 147.338 158.717 146.584C158.717 145.831 159.326 145.22 160.08 145.22H184.687C185.441 145.22 186.051 145.831 186.051 146.584C186.051 147.338 185.441 147.949 184.687 147.949Z" fill="#61ED46"/>
<path d="M140.898 147.949H31.4985C30.745 147.949 30.1353 147.338 30.1353 146.584C30.1353 145.831 30.745 145.22 31.4985 145.22H140.898C141.651 145.22 142.261 145.831 142.261 146.584C142.261 147.338 141.651 147.949 140.898 147.949Z" fill="#61ED46"/>
<path d="M201.813 254.918H194.004C194.004 254.959 193.999 255.001 193.987 255.044C193.94 255.213 193.809 255.336 193.651 255.379C190.324 256.286 186.997 256.398 183.669 256.398C183.362 256.398 183.055 256.397 182.748 256.395C180.945 256.367 179.143 256.304 177.341 256.304C177.326 256.304 177.311 256.304 177.296 256.304L171.845 256.302H152.591C152.206 256.334 151.818 256.349 151.426 256.349H63.6455C63.2539 256.349 62.8659 256.334 62.4812 256.302H51.9046C51.2586 256.301 50.6127 256.3 49.9667 256.3C46.978 256.3 43.9901 256.314 41.0014 256.349C38.8567 256.38 36.7128 256.412 34.569 256.412C33.0782 256.412 31.5882 256.396 30.0973 256.356C26.4627 256.278 22.8289 256.09 19.1942 255.379C18.9698 255.335 18.814 255.138 18.814 254.918H11.0325C7.88356 254.918 7.15399 258.383 10.1443 259.156C26.3087 263.333 66.3658 265.421 106.423 265.421C146.48 265.421 186.537 263.333 202.701 259.156C205.691 258.383 204.962 254.918 201.813 254.918Z" fill="#B2B2D4"/>
<path d="M19.1942 254.455C22.8289 253.745 26.4628 253.556 30.0974 253.479C33.7321 253.379 37.3668 253.432 41.0015 253.486C44.6362 253.528 48.2699 253.539 51.9046 253.533H62.8087H106.423H150.037H171.845L177.296 253.531C179.113 253.532 180.931 253.468 182.748 253.439C186.383 253.422 190.016 253.464 193.651 254.455C193.906 254.525 194.057 254.788 193.987 255.044C193.941 255.213 193.809 255.336 193.651 255.379C190.016 256.371 186.383 256.412 182.748 256.395C180.931 256.366 179.113 256.303 177.296 256.304L171.845 256.302H150.037H106.423H62.8087H51.9046C48.2699 256.296 44.6362 256.306 41.0015 256.349C37.3668 256.402 33.7321 256.455 30.0974 256.356C26.4628 256.278 22.8289 256.09 19.1942 255.379C18.939 255.329 18.7727 255.082 18.8229 254.827C18.8607 254.634 19.0121 254.492 19.1942 254.455Z" fill="#000072"/>
<path d="M151.38 245.057L151.954 244.988C167.968 243.083 178.928 227.885 175.687 212.079L169.671 182.744C166.925 169.357 155.15 159.748 141.491 159.748H106.485H107.475H72.4682C58.8097 159.748 47.0343 169.357 44.2885 182.744L38.2723 212.079C35.0311 227.885 45.9923 243.083 62.0052 244.988L62.5799 245.057H151.38Z" fill="#4D5A6A"/>
<path d="M72.4682 159.968C58.9768 159.968 47.2156 169.565 44.5041 182.788L38.4879 212.124C36.9558 219.596 38.6349 227.431 43.0969 233.618C47.558 239.804 54.4594 243.869 62.0315 244.77L62.6053 244.838L151.367 244.837L151.929 244.77C159.5 243.869 166.401 239.804 170.863 233.618C175.324 227.431 177.004 219.597 175.471 212.124L169.455 182.788C166.744 169.565 154.983 159.968 141.491 159.968H72.4682ZM151.393 245.277H62.5799L61.9796 245.207C54.286 244.292 47.2728 240.162 42.7396 233.875C38.2064 227.589 36.4999 219.629 38.0568 212.035L44.0729 182.699C46.8266 169.272 58.7692 159.528 72.4682 159.528H141.491C155.191 159.528 167.133 169.272 169.887 182.699L175.903 212.035C177.46 219.629 175.753 227.59 171.22 233.876C166.687 240.162 159.674 244.292 151.98 245.207L151.393 245.277Z" fill="#000072"/>
<path d="M54.0405 241.21C51.7461 240.116 49.6164 238.692 47.726 236.981C46.3355 235.305 45.1438 233.467 44.1802 231.508C46.9744 233.172 50.1092 234.363 53.493 234.955L54.0405 241.21ZM161.083 240.619L162.359 226.052C167.862 219.808 170.511 211.135 168.691 202.271L167.285 195.413L169.278 187.958L174.285 212.367C175.749 219.509 174.144 226.996 169.88 232.909C167.552 236.138 164.527 238.762 161.083 240.619Z" fill="#363F6C"/>
<path d="M44.1802 231.508C43.602 231.164 43.037 230.798 42.4887 230.414C39.4357 224.966 38.4096 218.538 39.6751 212.367L45.1756 185.546L46.6215 190.963L41.9308 213.831C40.6493 220.08 41.5876 226.234 44.1802 231.508Z" fill="#AFB5BC"/>
<path d="M47.726 236.981C46.3795 235.764 45.1553 234.401 44.0791 232.908C43.4991 232.104 42.9683 231.271 42.4888 230.414C43.037 230.798 43.602 231.164 44.1802 231.508C45.1439 233.467 46.3356 235.305 47.726 236.981Z" fill="#A4A8BD"/>
<path d="M62.6643 243.624H151.295L151.786 243.566C159.021 242.706 165.616 238.821 169.88 232.909C174.144 226.996 175.749 219.509 174.285 212.367L168.268 183.031C165.671 170.369 154.411 161.179 141.491 161.179H72.4682C59.5498 161.179 48.2883 170.369 45.6913 183.031L39.6751 212.367C38.2098 219.509 39.8151 226.996 44.0791 232.908C48.3429 238.821 54.9382 242.706 62.1741 243.566L62.6643 243.624ZM151.38 246.489H62.5798C62.5234 246.489 62.4672 246.486 62.4109 246.479L61.8371 246.411C53.8073 245.455 46.4886 241.145 41.7574 234.585C37.0261 228.024 35.2449 219.716 36.8695 211.791L42.8857 182.456C45.7547 168.467 58.1962 158.315 72.4682 158.315H141.491C155.763 158.315 168.205 168.467 171.074 182.456L177.09 211.791C178.715 219.717 176.933 228.025 172.202 234.585C167.471 241.145 160.152 245.455 152.123 246.411L151.549 246.479C151.493 246.486 151.437 246.489 151.38 246.489Z" fill="#000072"/>
<path d="M157.963 138.08C157.877 138.413 157.786 138.752 157.696 139.082C157.624 139.335 157.552 139.584 157.481 139.832C157.452 139.927 157.428 140.018 157.395 140.114C157.338 140.319 157.271 140.524 157.209 140.725C157.128 140.987 157.042 141.245 156.956 141.503C156.918 141.618 156.88 141.732 156.841 141.842C156.717 142.215 156.589 142.582 156.45 142.945C156.307 143.346 156.154 143.742 155.996 144.134C155.844 144.53 155.681 144.921 155.515 145.313C155.352 145.7 155.18 146.092 155.004 146.474C154.837 146.846 154.665 147.213 154.489 147.581C154.465 147.629 154.441 147.676 154.417 147.724C154.255 148.068 154.083 148.407 153.906 148.746C153.902 148.756 153.897 148.765 153.892 148.774C153.701 149.152 153.506 149.519 153.305 149.892C153.066 150.331 152.823 150.766 152.57 151.196C152.399 151.496 152.222 151.792 152.046 152.089C152.036 152.098 152.031 152.107 152.031 152.113C151.812 152.475 151.587 152.834 151.358 153.191C150.976 153.788 150.585 154.38 150.179 154.967C150.003 155.225 149.822 155.479 149.64 155.732C149.487 155.946 149.334 156.157 149.178 156.372C148.943 156.691 148.705 157.007 148.466 157.322C148.232 157.627 147.998 157.923 147.76 158.224C147.626 158.391 147.492 158.558 147.359 158.721C147.273 158.826 147.187 158.931 147.101 159.035C146.939 159.226 146.781 159.417 146.619 159.609C146.18 160.124 145.731 160.635 145.274 161.142C145.054 161.39 144.825 161.633 144.596 161.877C144.429 162.054 144.261 162.235 144.095 162.411C143.856 162.66 143.622 162.903 143.379 163.142C143.036 163.491 142.682 163.839 142.329 164.183C142.043 164.46 141.756 164.732 141.465 164.999C141.422 165.042 141.379 165.085 141.336 165.119C141.04 165.401 140.739 165.673 140.434 165.945C139.876 166.446 139.308 166.933 138.731 167.415C138.588 167.535 138.444 167.654 138.296 167.778C138.005 168.017 137.709 168.255 137.408 168.495C136.368 169.321 135.304 170.118 134.216 170.886C134.197 170.901 134.173 170.915 134.154 170.93C129.912 173.919 125.297 176.139 120.506 177.595C118.845 178.101 117.16 178.517 115.461 178.841C107.935 180.274 100.138 179.897 92.7546 177.719C87.7919 176.258 83.0149 173.98 78.6287 170.886C78.2854 170.643 77.9422 170.395 77.5981 170.147C77.5646 170.118 77.5311 170.094 77.4934 170.07C77.1545 169.817 76.8157 169.564 76.4812 169.311C76.1327 169.043 75.7851 168.771 75.4366 168.495H75.4313C75.0881 168.217 74.7492 167.941 74.4105 167.664C74.0663 167.382 73.7328 167.096 73.3984 166.809C73.0648 166.522 72.7357 166.236 72.4109 165.945C72.0818 165.649 71.7571 165.357 71.4376 165.056C71.1173 164.76 70.8021 164.46 70.4871 164.154C70.1729 163.854 69.8623 163.548 69.5569 163.237C69.2515 162.927 68.9461 162.616 68.6452 162.302C68.345 161.982 68.044 161.662 67.7431 161.337C67.457 161.022 67.1755 160.707 66.8938 160.383C66.6747 160.134 66.4546 159.881 66.2399 159.628C65.6151 158.887 65.0043 158.134 64.4129 157.365C64.1735 157.05 63.9307 156.735 63.7018 156.414C63.6684 156.376 63.6394 156.333 63.6112 156.295C63.4484 156.08 63.2908 155.86 63.1385 155.641C62.7847 155.144 62.4416 154.648 62.1071 154.141C61.9215 153.865 61.7348 153.583 61.5589 153.301C61.2869 152.876 61.0194 152.452 60.7571 152.017C60.5758 151.711 60.3892 151.401 60.2079 151.09C59.9597 150.656 59.7168 150.212 59.4731 149.768C59.297 149.434 59.1201 149.099 58.9485 148.765C58.7716 148.426 58.6 148.082 58.4372 147.739C58.4091 147.691 58.3853 147.643 58.3659 147.595C58.0034 146.855 57.6645 146.106 57.3495 145.351C57.3301 145.318 57.316 145.289 57.3064 145.256C57.1488 144.883 56.9966 144.511 56.8487 144.134C56.6912 143.742 56.538 143.346 56.3954 142.945C56.2467 142.548 56.1041 142.148 55.9703 141.746C55.87 141.45 55.7697 141.149 55.6747 140.849C55.5981 140.61 55.5268 140.372 55.4547 140.132C55.4212 140.027 55.3877 139.917 55.3596 139.813C55.2883 139.578 55.2215 139.349 55.1589 139.115C55.0639 138.772 54.9733 138.428 54.8826 138.08C51.313 112.868 74.2239 84.9099 97.1171 72.9206C102.939 69.8696 109.906 69.8696 115.729 72.9206C116.244 73.1883 116.754 73.4745 117.27 73.7703L117.275 73.7756C139.642 86.6384 161.451 113.437 157.963 138.08Z" fill="#4D5A6A"/>
<path d="M154.898 130.682L144.086 130.588C144.388 128.633 144.558 126.62 144.584 124.58C144.679 117.468 143.041 110.923 139.931 105.82L143.349 106.553C143.429 106.571 143.51 106.579 143.59 106.579C143.905 106.579 144.21 106.449 144.43 106.214C144.705 105.919 144.805 105.501 144.694 105.113C142.495 97.4503 135.455 91.9682 127.253 88.7349C123.599 83.7511 119.342 79.0826 114.756 74.9089C134.415 86.5213 153.408 108.762 154.898 130.682Z" fill="#2E366D"/>
<path d="M57.7121 129.835L56.0725 129.82C56.7793 120.695 60.6128 110.849 67.2485 101.363C67.6031 100.858 67.964 100.354 68.331 99.8533C68.5792 100.517 68.9892 101.222 69.5859 101.938C63.3507 110.603 58.9274 120.23 57.7121 129.835ZM75.2888 94.8317C74.3612 94.6054 73.5163 94.5041 72.7603 94.5041C72.7031 94.5041 72.6468 94.5041 72.5905 94.5059C79.7815 86.1629 88.6482 78.9725 97.7807 74.1895C100.487 72.7719 103.454 72.063 106.423 72.063C108.694 72.063 110.965 72.4777 113.118 73.3081C111.854 73.0624 110.57 72.9391 109.286 72.9391C106.089 72.9391 102.891 73.7026 99.98 75.2276C93.1885 78.7849 86.3961 83.7467 80.2928 89.6268C79.8387 89.8426 79.44 90.1904 79.1303 90.6544C79.0731 90.7408 79.0185 90.8323 78.9675 90.9283C77.7063 92.1919 76.4786 93.4942 75.2888 94.8317Z" fill="#AFB5BC"/>
<path d="M78.4719 169.012C78.8002 169.248 79.1285 169.485 79.4567 169.718C95.5585 181.085 117.209 181.101 133.331 169.758C133.353 169.742 133.378 169.726 133.392 169.716C134.454 168.965 135.507 168.177 136.519 167.373C136.813 167.139 137.104 166.905 137.389 166.67L137.813 166.315C138.351 165.867 138.912 165.382 139.483 164.874C139.776 164.613 140.065 164.352 140.35 164.082C140.373 164.058 140.4 164.035 140.426 164.013L140.453 163.986C140.467 163.972 140.482 163.958 140.497 163.944C140.779 163.685 141.056 163.421 141.333 163.154C141.677 162.82 142.023 162.478 142.359 162.137C142.607 161.894 142.828 161.663 143.053 161.429L143.555 160.893C143.784 160.649 143.997 160.423 144.2 160.193C144.657 159.69 145.099 159.184 145.53 158.68L146.249 157.817C146.382 157.653 146.512 157.491 146.641 157.33C146.873 157.039 147.101 156.749 147.329 156.451C147.558 156.148 147.793 155.839 148.022 155.525C148.176 155.316 148.325 155.111 148.473 154.9C148.652 154.652 148.827 154.407 148.999 154.158C149.375 153.614 149.751 153.046 150.153 152.419C150.374 152.072 150.593 151.724 150.806 151.372L150.816 151.354C150.988 151.066 151.16 150.778 151.327 150.485C151.581 150.054 151.816 149.634 152.047 149.209C152.239 148.852 152.429 148.495 152.615 148.128L152.637 148.084C152.804 147.762 152.968 147.441 153.122 147.114L153.21 146.936C153.369 146.605 153.536 146.249 153.697 145.888C153.874 145.505 154.039 145.129 154.195 144.758C154.358 144.375 154.514 143.999 154.66 143.619C154.819 143.225 154.965 142.846 155.101 142.463C155.243 142.09 155.365 141.742 155.483 141.389L155.616 140.996C155.693 140.765 155.769 140.535 155.841 140.301L155.894 140.132C155.935 139.998 155.978 139.864 156.016 139.729C156.024 139.699 156.033 139.668 156.045 139.638C156.058 139.599 156.068 139.56 156.08 139.52L156.318 138.692C156.397 138.405 156.479 138.101 156.556 137.8C158.112 126.627 154.221 113.692 145.596 101.363C137.748 90.1464 126.62 80.2413 115.064 74.1895C109.654 71.3542 103.192 71.3542 97.7806 74.1895C86.2254 80.2413 75.0969 90.1464 67.2485 101.363C58.6246 113.692 54.7339 126.627 56.2881 137.799C56.3708 138.112 56.4526 138.422 56.5389 138.732C56.6005 138.966 56.663 139.179 56.729 139.394C56.7642 139.522 56.7924 139.614 56.8196 139.702C56.8953 139.952 56.9648 140.182 57.0379 140.414C57.1312 140.708 57.2298 140.999 57.3265 141.287C57.4568 141.678 57.5941 142.063 57.7358 142.444C57.8801 142.847 58.0262 143.225 58.1767 143.6C58.3246 143.977 58.4724 144.338 58.6255 144.699L58.6334 144.719C58.6466 144.745 58.659 144.773 58.6705 144.799C58.952 145.473 59.2742 146.184 59.6552 146.972C59.664 146.991 59.6729 147.01 59.6807 147.029C59.6992 147.061 59.716 147.094 59.7318 147.126C59.8867 147.454 60.0495 147.781 60.2175 148.104C60.391 148.44 60.5652 148.769 60.7386 149.099L60.7659 149.148C60.993 149.562 61.22 149.976 61.4514 150.381C61.5685 150.581 61.6961 150.795 61.8228 151.008L61.9874 151.286C62.2382 151.701 62.4996 152.114 62.7645 152.529C62.9405 152.809 63.1174 153.078 63.2952 153.343C63.604 153.81 63.9324 154.287 64.3046 154.811C64.4551 155.026 64.6012 155.231 64.7525 155.43C64.7587 155.439 64.7886 155.48 64.7948 155.489L64.7754 155.467C64.808 155.504 64.8379 155.541 64.8652 155.58C65.0377 155.821 65.219 156.059 65.3994 156.296L65.5534 156.5C66.1061 157.217 66.7072 157.962 67.3338 158.703C67.5406 158.947 67.7536 159.193 67.9657 159.433C68.25 159.76 68.5245 160.067 68.8036 160.374C69.0922 160.685 69.3905 161.003 69.688 161.321C69.9705 161.616 70.2644 161.915 70.5584 162.213C70.8726 162.533 71.1718 162.828 71.4763 163.118C71.7914 163.424 72.0985 163.717 72.4101 164.005C72.7155 164.293 73.0164 164.563 73.3218 164.838L73.3676 164.879C73.6835 165.163 74.0047 165.442 74.3303 165.722C74.656 166.001 74.9825 166.281 75.3178 166.556C75.6487 166.827 75.955 167.076 76.2621 167.325C76.2841 167.34 76.3061 167.356 76.3263 167.373C76.6686 167.644 77.0102 167.912 77.3525 168.174C77.6641 168.41 77.9879 168.652 78.3109 168.894C78.3672 168.931 78.42 168.969 78.4719 169.012ZM106.422 181.117C96.3901 181.117 86.36 178.097 77.8039 172.057C77.4546 171.81 77.107 171.558 76.7593 171.307C76.7418 171.295 76.7241 171.281 76.7065 171.268C76.6827 171.252 76.659 171.235 76.6361 171.218C76.2762 170.949 75.9435 170.7 75.617 170.453C75.2791 170.193 74.9464 169.934 74.6146 169.67C74.5864 169.652 74.56 169.632 74.5337 169.61C74.1984 169.34 73.8674 169.07 73.5365 168.799C73.1511 168.483 72.8087 168.19 72.4673 167.897C72.1248 167.603 71.787 167.31 71.4543 167.011L71.4076 166.969C71.0855 166.679 70.7696 166.395 70.4562 166.1C70.1368 165.805 69.8138 165.496 69.4908 165.182C69.174 164.879 68.8528 164.563 68.5369 164.243C68.213 163.914 67.9085 163.604 67.6092 163.29C67.2995 162.961 66.9967 162.638 66.694 162.311C66.3904 161.977 66.1008 161.654 65.8121 161.321C65.5957 161.075 65.3686 160.815 65.1477 160.553C64.493 159.778 63.8637 159 63.2775 158.238L63.12 158.031C62.9335 157.785 62.746 157.538 62.5665 157.289C62.534 157.248 62.5022 157.206 62.4723 157.164C62.2954 156.93 62.1273 156.695 61.9636 156.46C61.5799 155.921 61.2341 155.417 60.9128 154.931C60.7245 154.652 60.5299 154.357 60.346 154.063C60.0741 153.639 59.8005 153.203 59.5311 152.757L59.363 152.475C59.2328 152.255 59.1008 152.034 58.9723 151.813C58.7258 151.382 58.4909 150.955 58.2559 150.527L58.2181 150.457C58.028 150.098 57.8485 149.759 57.675 149.42C57.5017 149.088 57.3301 148.745 57.1664 148.401C57.1276 148.329 57.0916 148.257 57.0599 148.184C56.6744 147.386 56.3453 146.659 56.054 145.965C56.0258 145.909 55.995 145.842 55.9677 145.766C55.812 145.398 55.6615 145.03 55.5154 144.656C55.3561 144.259 55.1959 143.845 55.0463 143.426C54.9001 143.033 54.7514 142.617 54.6124 142.2C54.5113 141.901 54.4082 141.592 54.3096 141.282C54.2322 141.037 54.1583 140.792 54.0835 140.545C54.0509 140.441 54.0122 140.314 53.9788 140.191C53.9137 139.98 53.8414 139.733 53.7746 139.482C53.6822 139.148 53.5898 138.796 53.4974 138.441C53.4833 138.388 53.4727 138.334 53.4648 138.28C51.3034 123.014 58.4917 108.885 64.903 99.7213C73.0059 88.1396 84.5048 77.9097 96.4526 71.6518C102.696 68.3807 110.15 68.3807 116.392 71.6518C128.341 77.9097 139.84 88.1405 147.942 99.7213C154.353 108.885 161.542 123.014 159.381 138.28C159.373 138.333 159.363 138.385 159.349 138.436C159.261 138.779 159.169 139.125 159.076 139.462L158.831 140.317C158.809 140.391 158.788 140.464 158.762 140.539C158.72 140.69 158.673 140.84 158.626 140.989L158.577 141.147C158.498 141.401 158.416 141.649 158.334 141.898L158.315 141.954C158.274 142.077 158.233 142.198 158.193 142.313C158.069 142.687 157.933 143.074 157.787 143.455C157.649 143.846 157.49 144.26 157.324 144.669C157.174 145.06 157.005 145.468 156.832 145.875C156.666 146.27 156.486 146.677 156.303 147.075C156.138 147.443 155.961 147.823 155.779 148.202L155.696 148.368C155.542 148.696 155.362 149.053 155.176 149.408C154.974 149.81 154.772 150.188 154.566 150.571C154.317 151.03 154.065 151.479 153.805 151.922C153.637 152.216 153.456 152.519 153.275 152.822L153.269 152.832L153.256 152.854C153.03 153.227 152.8 153.595 152.564 153.963C152.144 154.619 151.749 155.215 151.357 155.782C151.178 156.044 150.99 156.305 150.804 156.566C150.65 156.783 150.493 156.998 150.332 157.218C150.094 157.544 149.851 157.865 149.608 158.186C149.364 158.505 149.125 158.807 148.88 159.115C148.74 159.292 148.602 159.464 148.464 159.631L147.71 160.537C147.261 161.064 146.798 161.591 146.334 162.103C146.124 162.342 145.89 162.59 145.658 162.837L145.134 163.397C144.872 163.669 144.631 163.92 144.381 164.165C144.048 164.503 143.688 164.859 143.327 165.21C143.035 165.492 142.748 165.766 142.454 166.035C142.399 166.089 142.344 166.142 142.289 166.189C141.993 166.471 141.692 166.743 141.386 167.015C140.793 167.542 140.209 168.047 139.648 168.515L139.217 168.875C138.907 169.13 138.605 169.374 138.299 169.617C137.245 170.454 136.149 171.275 135.042 172.057C135.033 172.063 135.005 172.082 134.989 172.094L134.978 172.101C126.435 178.112 116.428 181.116 106.422 181.117Z" fill="#000072"/>
<path d="M146.527 145.315C146.439 145.584 146.343 145.856 146.243 146.135C143.59 152.935 138.386 156.559 135.235 152.456L137.114 143.219L138.393 136.94C143.31 133.58 149.866 135.09 146.527 145.315Z" fill="#FDBD91"/>
<path d="M135.418 152.414C136.374 153.626 137.576 154.168 138.904 153.979C141.538 153.604 144.356 150.5 146.084 146.073C146.182 145.799 146.277 145.529 146.364 145.262C147.788 140.904 147.519 137.714 145.609 136.28C143.926 135.017 141.095 135.325 138.547 137.043L135.418 152.414ZM138.387 154.358C137.136 154.358 136.008 153.744 135.099 152.561L135.052 152.498L138.24 136.839L138.297 136.799C140.981 134.965 144.002 134.647 145.814 136.007C146.993 136.893 148.675 139.286 146.689 145.369C146.601 145.638 146.504 145.911 146.404 146.193C144.63 150.737 141.706 153.925 138.952 154.317C138.761 154.345 138.572 154.358 138.387 154.358Z" fill="#000072"/>
<path d="M136.472 152.138C137.148 152.847 137.904 153.132 138.766 153.01C141.022 152.688 143.596 149.757 145.173 145.717C146.702 141.49 146.661 138.334 145.053 137.086C143.795 136.111 141.526 136.349 139.423 137.642L136.472 152.138ZM138.393 155.335C136.842 155.335 135.417 154.579 134.324 153.157C134.12 152.893 134.043 152.554 134.109 152.227L137.268 136.711C137.327 136.418 137.499 136.16 137.745 135.991C140.812 133.896 144.315 133.606 146.46 135.27C147.9 136.386 149.926 139.333 147.323 146.527C145.387 151.49 142.236 154.837 139.09 155.285C138.856 155.319 138.624 155.335 138.393 155.335Z" fill="#000072"/>
<path d="M66.328 145.315C66.416 145.584 66.5119 145.856 66.6114 146.135C69.2648 152.935 74.4687 156.559 77.6202 152.456L75.7403 143.219L74.4607 136.94C69.5446 133.58 62.989 135.09 66.328 145.315Z" fill="#FDBD91"/>
<path d="M66.555 145.241C66.6422 145.507 66.7373 145.777 66.8367 146.055C68.5528 150.453 71.3505 153.54 73.9608 153.912C75.2703 154.098 76.4145 153.589 77.3649 152.396L74.2468 137.084C71.7281 135.396 68.94 135.093 67.2872 136.334C65.4012 137.749 65.1417 140.912 66.555 145.241ZM74.4695 154.427C74.2803 154.427 74.0884 154.412 73.893 154.384C71.1155 153.989 68.1699 150.785 66.3896 146.222C66.2866 145.934 66.1898 145.66 66.1009 145.39V145.389C64.1022 139.267 65.8061 136.849 67.0004 135.952C68.8353 134.575 71.8874 134.893 74.5953 136.743L74.6755 136.798L77.8762 152.515L77.8093 152.602C76.8862 153.803 75.7412 154.427 74.4695 154.427Z" fill="#000072"/>
<path d="M69.7955 136.488C69.0132 136.488 68.3215 136.684 67.8022 137.086C66.1934 138.334 66.1529 141.49 67.6922 145.744C69.2587 149.757 71.8329 152.688 74.0885 153.01C74.9519 153.132 75.7061 152.847 76.3828 152.138L73.4311 137.642C72.1973 136.883 70.9054 136.488 69.7955 136.488ZM74.4617 155.335C74.232 155.335 73.9987 155.319 73.7646 155.285C70.6193 154.837 67.4687 151.49 65.5421 146.553C62.9292 139.333 64.9561 136.386 66.3949 135.27C68.5406 133.606 72.0424 133.895 75.1094 135.991C75.3558 136.16 75.5275 136.418 75.5864 136.711L78.7459 152.227C78.8127 152.554 78.7344 152.893 78.5311 153.157C77.4389 154.578 76.0132 155.335 74.4617 155.335Z" fill="#000072"/>
<path d="M137.701 143.454V148.763C137.701 157.897 133.332 166.559 125.807 171.731C125.7 171.804 125.593 171.873 125.49 171.945C114.014 179.642 98.9882 179.642 87.5129 171.949C87.4091 171.876 87.3018 171.804 87.1944 171.731C79.6671 166.562 75.2976 157.9 75.2976 148.763V143.454C75.2976 143.454 75.317 143.113 75.3548 142.499C75.6382 137.653 76.9214 115.908 77.1282 115.352C83.9592 96.9555 152.255 101.465 137.701 143.454Z" fill="#FDBD91"/>
<path d="M101.639 105.313C98.9098 105.313 96.2194 105.514 93.6575 105.925C85.0267 107.305 79.0836 110.772 77.3517 115.435C77.1861 116.047 76.3009 130.406 75.5933 142.513C75.5546 143.126 75.5361 143.467 75.5361 143.467V148.763C75.5361 157.951 79.9452 166.464 87.3298 171.534C87.4575 171.621 87.556 171.688 87.6502 171.754C99.1008 179.429 113.903 179.427 125.357 171.747C125.418 171.703 125.486 171.659 125.555 171.613L125.674 171.533C133.055 166.459 137.462 157.947 137.462 148.763L137.474 143.375C145.457 120.345 127.847 111.222 119.906 108.368C114.331 106.365 107.883 105.313 101.639 105.313ZM106.497 177.986C99.8417 177.986 93.1867 176.04 87.38 172.147C87.2833 172.079 87.1873 172.014 87.0914 171.949C79.5457 166.769 75.0591 158.109 75.0591 148.763V143.454C75.0599 143.439 75.0784 143.099 75.1171 142.485C75.5845 134.491 76.6933 115.836 76.9046 115.269C78.6972 110.44 84.7758 106.862 93.5819 105.453C102.082 104.092 111.983 105.014 120.067 107.919C128.139 110.818 146.029 120.089 137.939 143.493V148.763C137.939 158.105 133.454 166.764 125.942 171.927L125.819 172.01C125.754 172.053 125.689 172.096 125.627 172.14C119.816 176.037 113.156 177.986 106.497 177.986Z" fill="#000072"/>
<path d="M123.478 130.408L110.3 130.293C107.403 129.772 104.548 128.874 101.938 127.486C101.821 127.424 101.701 127.396 101.587 127.396C101.077 127.396 100.66 127.945 100.921 128.473C101.065 128.765 101.123 128.863 101.123 128.863C100.715 129.116 99.9078 129.238 98.8675 129.238C95.9502 129.238 91.1995 128.279 88.2707 126.574C87.9838 126.407 87.6766 126.331 87.3757 126.331C86.5158 126.331 85.7044 126.956 85.5583 127.892C85.4395 128.647 85.2873 129.371 85.098 130.074L82.9392 130.055C83.5429 127.4 83.917 124.408 84.3623 120.43C87.05 124.483 91.064 126.614 96.3382 126.776C96.3497 126.776 96.3621 126.776 96.3734 126.776C96.8188 126.776 97.2254 126.517 97.4146 126.111C97.6082 125.694 97.5343 125.201 97.2271 124.859C97.2042 124.833 95.5049 122.913 94.7268 120.476C102.53 126.502 111.011 129.528 120.068 129.528C123.506 129.528 127.027 129.092 130.626 128.219C130.633 128.323 130.64 128.432 130.648 128.544C128.798 129.307 126.312 129.982 123.478 130.408Z" fill="#B18488"/>
<path d="M78.2133 115.728L78.2054 115.75C78.208 115.744 78.2107 115.737 78.2133 115.728ZM76.4461 143.487V148.763C76.4461 157.652 80.7083 165.884 87.8457 170.784C87.9477 170.855 88.0498 170.924 88.1528 170.993C99.3006 178.468 113.705 178.467 124.848 170.991L125.154 170.783C132.292 165.881 136.552 157.649 136.552 148.763V143.454C136.552 143.325 136.573 143.197 136.615 143.077C144.332 120.817 127.288 111.989 119.601 109.227C102.941 103.24 81.7406 106.555 78.2362 115.668C78.0241 117.153 77.056 133.011 76.4461 143.487ZM106.5 178.899C99.6676 178.899 92.8366 176.9 86.875 172.904C86.765 172.83 86.6549 172.755 86.545 172.68C78.7827 167.351 74.1492 158.41 74.1492 148.763V143.454C74.1492 143.431 74.1492 143.409 74.1509 143.387C75.757 115.759 75.9788 115.146 76.051 114.951C80.2551 103.633 103.939 101.156 120.378 107.063C128.209 109.877 134.138 114.341 137.525 119.97C141.511 126.595 141.957 134.559 138.849 143.645V148.763C138.849 158.408 134.216 167.348 126.456 172.677L126.129 172.899C120.167 176.899 113.333 178.898 106.5 178.899Z" fill="#000072"/>
<path d="M137.341 104.089C145.956 115.103 144.884 134.27 137.628 144.315C132.075 141.25 131.708 126.753 131.708 126.753C118.566 130.332 105.268 128.148 93.2106 117.754C92.9537 121.838 96.3735 125.627 96.3735 125.627C94.822 125.581 93.4324 125.355 92.1844 124.98C87.8228 123.673 85.2266 120.513 83.6373 116.54C82.1059 130.332 82.0099 133.397 75.2977 143.454C68.5969 129.087 67.3638 111.368 78.5337 106.07C62.96 100.706 68.7042 89.8488 82.1059 99.4914C75.5318 90.0399 83.8291 86.3971 85.5522 96.8094C95.2435 79.0984 137.819 85.3167 143.59 105.43L137.356 104.092C137.344 104.089 137.341 104.089 137.341 104.089Z" fill="#AC3D50"/>
<path d="M131.939 126.444L131.947 126.747C131.95 126.889 132.365 140.817 137.56 143.999C144.467 134.234 145.769 115.252 137.153 104.236L136.85 103.85L137.434 103.868L143.245 105.112C139.902 94.4213 126.319 88.2859 114.216 86.9404C103.739 85.7746 90.7622 87.7857 85.7616 96.9247L85.4298 97.5305L85.3163 96.849C84.6456 92.7923 82.9991 91.0507 81.7925 90.7918C81.1799 90.6606 80.6449 90.8843 80.2858 91.4241C79.4964 92.611 79.551 95.4005 82.3011 99.355L83.0967 100.499L81.9667 99.6852C76.3405 95.6374 72.301 95.374 70.5549 96.3779C69.7417 96.8454 69.3422 97.6141 69.4311 98.5431C69.6185 100.517 72.1346 103.613 78.611 105.844L79.1646 106.035L78.6357 106.286C67.7615 111.443 68.742 128.565 75.3354 142.966C81.51 133.647 81.8814 130.283 83.2164 118.177L83.506 115.567L83.8598 116.451C85.6287 120.874 88.3737 123.59 92.2521 124.751C93.3592 125.084 94.5658 125.29 95.8427 125.365C94.9592 124.254 92.759 121.125 92.972 117.739L93.0019 117.26L93.3654 117.574C104.699 127.343 117.577 130.354 131.645 126.524L131.939 126.444ZM137.697 144.626L137.512 144.524C132.287 141.64 131.566 129.227 131.479 127.063C117.521 130.775 104.725 127.814 93.4349 118.261C93.4719 122.007 96.5178 125.432 96.5503 125.467L96.9244 125.882L96.3664 125.866C94.8465 125.821 93.4164 125.6 92.1148 125.209C88.3428 124.078 85.6067 121.544 83.7744 117.473L83.6908 118.23C82.3285 130.579 81.9624 133.898 75.4965 143.586L75.2607 143.939L75.0811 143.555C68.3327 129.084 67.2107 111.731 77.9237 106.107C71.6339 103.822 69.16 100.745 68.9559 98.588C68.8484 97.4618 69.3325 96.5302 70.3173 95.964C72.1628 94.9039 75.9603 95.0932 81.239 98.6012C79.0273 94.9805 79.0898 92.36 79.888 91.159C80.3562 90.4554 81.0902 90.1517 81.8928 90.3251C83.2376 90.614 84.8965 92.2958 85.6692 96.126C90.9988 87.2662 103.857 85.3079 114.269 86.4658C126.674 87.8447 140.623 94.2241 143.819 105.364L143.929 105.747L137.922 104.458C146.28 115.772 144.829 134.754 137.821 144.456L137.697 144.626Z" fill="#000072"/>
<path d="M80.5824 130.034L77.584 130.008C79.1267 125.703 79.6539 121.301 80.4117 114.439C80.4663 113.946 80.8702 113.667 81.2785 113.667C81.576 113.667 81.8769 113.817 82.0433 114.139C82.3073 114.648 82.56 115.187 82.7896 115.765C82.6304 115.94 82.5239 116.164 82.4957 116.412L82.3118 118.078C81.7273 123.376 81.3331 126.946 80.5824 130.034Z" fill="#782B5A"/>
<path d="M71.9139 101.104C70.9256 100.147 70.4099 99.2237 70.3368 98.4568C70.2822 97.88 70.5014 97.4583 71.0074 97.1677C71.444 96.9177 72.038 96.7803 72.7684 96.7803C73.1337 96.7803 73.5332 96.8147 73.9635 96.8868C71.7326 97.3042 70.8789 99.0345 71.9139 101.104Z" fill="#DAA8B0"/>
<path d="M73.1502 129.969L72.0888 129.96C71.5194 126.957 71.2659 124.057 71.3619 121.402C71.5414 116.455 73.0173 109.958 79.0255 107.108C79.0572 107.093 79.0888 107.076 79.1188 107.059C79.3599 107.645 79.2367 108.357 78.6814 108.819C73.4274 113.177 71.9295 121.287 73.1502 129.969Z" fill="#DAA8B0"/>
<path d="M83.0855 98.8918C83.074 98.8724 83.0617 98.8539 83.0485 98.8345C80.3801 94.9989 80.5702 92.64 81.0436 91.9285C81.1819 91.7199 81.3262 91.6653 81.4608 91.6653C81.5092 91.6653 81.5568 91.6723 81.6025 91.682C81.8763 91.741 82.2732 91.9797 82.6921 92.4842C82.0584 93.4844 81.9977 95.36 83.1365 97.8695C83.3001 98.2323 83.2553 98.5994 83.0855 98.8918Z" fill="#DAA8B0"/>
<path d="M87.8105 96.6323C87.5614 96.6323 87.3141 96.5813 87.0879 96.4792C90.7702 90.8314 98.9054 87.5461 108.827 87.5461C110.541 87.5461 112.309 87.644 114.115 87.8447C120.603 88.5668 127.521 90.6809 132.972 94.1475C125.934 91.2866 117.125 89.4305 109.059 89.3926C108.333 90.7866 106.699 91.4081 105.032 91.4081C103.54 91.4081 102.022 90.9107 101.102 90.0248C96.0857 90.9248 91.8394 92.8258 89.1895 95.994C88.834 96.4201 88.3191 96.6323 87.8105 96.6323Z" fill="#DAA8B0"/>
<path d="M131.707 125.604C131.952 125.604 132.193 125.683 132.394 125.832C132.676 126.042 132.847 126.371 132.856 126.724C132.948 130.295 133.945 139.575 137.342 142.696C143.601 132.994 144.591 115.222 136.436 104.797C136.138 104.416 136.11 103.89 136.367 103.479C136.623 103.069 137.107 102.864 137.582 102.965L141.821 103.875C137.84 94.5041 125.334 89.0924 114.115 87.8447C101.316 86.4227 90.5017 90.1579 86.5598 97.3614C86.324 97.792 85.8417 98.0253 85.3594 97.9426C84.8763 97.8607 84.4987 97.4812 84.4187 96.9977C83.7797 93.134 82.2968 91.8317 81.6024 91.682C81.4317 91.6451 81.2319 91.6451 81.0435 91.9285C80.5701 92.64 80.38 94.9989 83.0484 98.8345C83.3679 99.2942 83.3107 99.9176 82.912 100.31C82.5124 100.703 81.8884 100.751 81.4353 100.425C76.498 96.8727 72.6407 96.2299 71.0073 97.1677C70.5013 97.4583 70.2821 97.88 70.3366 98.4568C70.5118 100.296 73.2295 103.028 78.9077 104.983C79.3495 105.135 79.6549 105.539 79.6803 106.006C79.7059 106.472 79.4472 106.908 79.0256 107.108C73.0174 109.958 71.5415 116.455 71.362 121.402C71.149 127.269 72.6433 134.334 75.4912 141.061C80.6669 132.988 81.0339 129.662 82.3118 118.078L82.4957 116.412C82.5546 115.889 82.9613 115.472 83.4831 115.401C84.0068 115.329 84.5084 115.624 84.7038 116.113C86.5536 120.741 89.5899 123.413 93.948 124.222C92.9615 122.59 91.9045 120.212 92.0637 117.682C92.091 117.247 92.3622 116.864 92.7643 116.695C93.1657 116.526 93.6294 116.598 93.9604 116.884C105.05 126.443 117.647 129.391 131.406 125.645C131.506 125.618 131.607 125.604 131.707 125.604ZM137.627 145.465C137.438 145.465 137.248 145.418 137.073 145.322C132.007 142.525 130.876 132.199 130.626 128.219C117.547 131.392 105.493 128.79 94.7269 120.476C95.5049 122.913 97.2043 124.833 97.2272 124.859C97.5343 125.201 97.6082 125.694 97.4146 126.111C97.2254 126.517 96.8188 126.776 96.3735 126.776C96.3621 126.776 96.3497 126.776 96.3383 126.776C91.0641 126.614 87.05 124.483 84.3623 120.43C83.1496 131.269 82.4588 134.794 76.2525 144.092C76.0228 144.436 75.6277 144.63 75.2105 144.599C74.7969 144.567 74.4325 144.316 74.2565 143.94C67.6718 129.821 66.4019 112.983 75.8979 106.28C70.4661 103.92 68.2597 100.888 68.0494 98.6743C67.9085 97.1933 68.5704 95.9174 69.8641 95.1742C71.6022 94.1748 74.7978 94.1017 79.0855 96.2828C78.1393 93.709 78.3867 91.7736 79.1303 90.6544C79.8071 89.6383 80.9125 89.1822 82.0838 89.4349C83.771 89.7977 85.1711 91.4425 86.0371 93.9846C92.1113 86.1805 104.352 84.4476 114.369 85.5606C127.076 86.9738 141.382 93.5673 144.694 105.113C144.805 105.501 144.705 105.919 144.43 106.214C144.154 106.509 143.744 106.638 143.349 106.553L139.931 105.82C143.041 110.923 144.679 117.468 144.584 124.58C144.482 132.391 142.285 139.83 138.559 144.988C138.336 145.297 137.985 145.465 137.627 145.465Z" fill="#000072"/>
<path d="M131.707 127.903C131.2 127.903 130.737 127.565 130.598 127.052C130.434 126.439 130.797 125.809 131.41 125.644C132.836 125.26 134.279 124.799 135.698 124.274C136.292 124.054 136.953 124.357 137.173 124.953C137.393 125.548 137.09 126.209 136.495 126.429C135.011 126.979 133.501 127.461 132.006 127.864C131.906 127.89 131.806 127.903 131.707 127.903Z" fill="#000072"/>
<path d="M141.753 130.568L133.142 130.492C133.017 129.417 132.937 128.432 132.893 127.616C134.096 127.269 135.303 126.871 136.495 126.429C137.09 126.209 137.394 125.548 137.174 124.953C137.002 124.489 136.564 124.202 136.096 124.202C135.963 124.202 135.829 124.225 135.698 124.274C134.282 124.798 132.844 125.257 131.42 125.64C131.416 125.642 131.411 125.643 131.406 125.645C127.549 126.694 123.785 127.218 120.119 127.218C110.705 127.218 101.941 123.763 93.9604 116.884C93.7474 116.7 93.4807 116.604 93.2096 116.604C93.0592 116.604 92.9077 116.634 92.7643 116.695C92.3622 116.864 92.091 117.247 92.0638 117.682C91.9045 120.212 92.9615 122.59 93.948 124.222C92.9932 124.045 92.1016 123.778 91.2726 123.421C87.6309 116.935 88.0666 114.051 91.7611 114.051C93.2202 114.051 95.1872 114.501 97.6135 115.356C107.864 118.665 116.978 120.835 123.922 120.835C133.268 120.835 138.687 116.909 137.68 106.552C142.021 113.312 143.093 122.455 141.753 130.568Z" fill="#782B5A"/>
<path d="M142.92 130.578L141.753 130.568C143.093 122.455 142.021 113.312 137.68 106.552C137.605 105.769 137.492 104.948 137.341 104.089C142.825 111.1 144.384 121.415 142.92 130.578ZM133.142 130.492L131.993 130.482C131.876 129.445 131.806 128.553 131.765 127.902C131.845 127.898 131.926 127.885 132.007 127.864C132.301 127.785 132.597 127.702 132.893 127.616C132.937 128.432 133.017 129.417 133.142 130.492ZM120.177 128.353C110.896 128.353 101.744 125.11 93.2106 117.754C92.9537 121.838 96.3736 125.627 96.3736 125.627C94.822 125.581 93.4324 125.355 92.1845 124.98C91.8562 124.439 91.5517 123.919 91.2727 123.421C92.1017 123.778 92.9932 124.045 93.9481 124.222C92.9616 122.59 91.9046 120.212 92.0638 117.682C92.0911 117.247 92.3623 116.864 92.7644 116.695C92.9078 116.634 93.0593 116.604 93.2097 116.604C93.4808 116.604 93.7475 116.7 93.9605 116.884C101.941 123.763 110.705 127.218 120.119 127.218C123.785 127.218 127.549 126.694 131.406 125.645C131.411 125.643 131.416 125.642 131.421 125.64C131.417 125.641 131.413 125.643 131.41 125.644C130.8 125.808 130.438 126.432 130.596 127.042C127.124 127.901 123.641 128.353 120.177 128.353Z" fill="#000072"/>
<path d="M131.764 127.902C131.719 127.18 131.708 126.753 131.708 126.753C131.338 126.855 130.967 126.951 130.596 127.042C130.437 126.432 130.8 125.808 131.41 125.644C131.413 125.643 131.417 125.641 131.42 125.64C132.843 125.257 134.282 124.798 135.698 124.274C135.829 124.225 135.963 124.202 136.096 124.202C136.563 124.202 137.002 124.489 137.173 124.953C137.393 125.548 137.09 126.209 136.495 126.429C135.303 126.871 134.096 127.269 132.893 127.616C132.597 127.702 132.301 127.785 132.006 127.864C131.926 127.885 131.845 127.898 131.764 127.902Z" fill="#000072"/>
<path d="M123.649 116.82C119.446 116.82 116.039 115.409 116.039 113.667C116.039 111.926 119.446 111.881 123.649 111.881C127.852 111.881 131.258 111.926 131.258 113.667C131.258 115.409 127.852 116.82 123.649 116.82Z" fill="#BC6473"/>
<path d="M110.525 164.706C110.525 164.706 108.878 165.759 104.584 165.759C103.652 165.823 100.986 165.677 97.6172 162.6C97.6172 162.6 99.1731 167.088 104.483 167.088C104.483 167.088 107.505 167.362 110.525 164.706Z" fill="#000072"/>
<path d="M86.1453 144.761C86.5061 143.588 87.3686 142.613 88.4326 141.95C89.5019 141.286 90.7824 140.948 92.0532 140.961C93.3249 140.97 94.5878 141.335 95.6457 141.994C96.6982 142.655 97.5625 143.603 97.9655 144.761C96.81 144.363 95.826 144.046 94.8544 143.842C93.889 143.633 92.9588 143.53 92.0294 143.517C91.1 143.508 90.1734 143.59 89.2167 143.793C88.254 143.992 87.2815 144.317 86.1453 144.761Z" fill="#000072"/>
<path d="M127.315 144.761C126.178 144.317 125.205 143.992 124.243 143.793C123.287 143.59 122.359 143.508 121.43 143.517C120.501 143.53 119.57 143.633 118.605 143.842C117.633 144.046 116.649 144.363 115.494 144.761C115.898 143.603 116.761 142.655 117.815 141.994C118.872 141.335 120.134 140.97 121.406 140.961C122.677 140.948 123.958 141.286 125.028 141.95C126.091 142.613 126.954 143.588 127.315 144.761Z" fill="#000072"/>
<path d="M97.1595 151.762C97.1595 154.641 95.3914 156.974 93.2105 156.974C91.0297 156.974 89.2617 154.641 89.2617 151.762C89.2617 148.884 91.0297 146.55 93.2105 146.55C95.3914 146.55 97.1595 148.884 97.1595 151.762Z" fill="#000072"/>
<path d="M95.4124 150.553C95.4124 151.52 94.8782 152.304 94.219 152.304C93.5599 152.304 93.0256 151.52 93.0256 150.553C93.0256 149.586 93.5599 148.803 94.219 148.803C94.8782 148.803 95.4124 149.586 95.4124 150.553Z" fill="white"/>
<path d="M94.2192 149.041C93.7017 149.041 93.2643 149.733 93.2643 150.553C93.2643 151.372 93.7017 152.064 94.2192 152.064C94.7367 152.064 95.1741 151.372 95.1741 150.553C95.1741 149.733 94.7367 149.041 94.2192 149.041ZM94.2192 152.542C93.4157 152.542 92.7874 151.668 92.7874 150.553C92.7874 149.438 93.4157 148.564 94.2192 148.564C95.0218 148.564 95.6502 149.438 95.6502 150.553C95.6502 151.668 95.0218 152.542 94.2192 152.542Z" fill="#000072"/>
<path d="M116.566 151.762C116.566 154.641 118.334 156.974 120.515 156.974C122.695 156.974 124.463 154.641 124.463 151.762C124.463 148.884 122.695 146.55 120.515 146.55C118.334 146.55 116.566 148.884 116.566 151.762Z" fill="#000072"/>
<path d="M118.313 150.553C118.313 151.52 118.847 152.304 119.506 152.304C120.165 152.304 120.699 151.52 120.699 150.553C120.699 149.586 120.165 148.803 119.506 148.803C118.847 148.803 118.313 149.586 118.313 150.553Z" fill="white"/>
<path d="M119.506 149.041C118.989 149.041 118.551 149.733 118.551 150.553C118.551 151.372 118.989 152.064 119.506 152.064C120.024 152.064 120.46 151.372 120.46 150.553C120.46 149.733 120.024 149.041 119.506 149.041ZM119.506 152.542C118.703 152.542 118.074 151.668 118.074 150.553C118.074 149.438 118.703 148.564 119.506 148.564C120.309 148.564 120.937 149.438 120.937 150.553C120.937 151.668 120.309 152.542 119.506 152.542Z" fill="#000072"/>
<path fill-rule="evenodd" clip-rule="evenodd" d="M183.016 136.578L183.746 133.85L183.016 136.578Z" fill="url(#paint0_linear_481_11)"/>
<path fill-rule="evenodd" clip-rule="evenodd" d="M179.977 147.949L180.706 145.22L179.977 147.949Z" fill="url(#paint1_linear_481_11)"/>
<path fill-rule="evenodd" clip-rule="evenodd" d="M163.952 207.877L167.285 195.413L163.952 207.877Z" fill="url(#paint2_linear_481_11)"/>
<path fill-rule="evenodd" clip-rule="evenodd" d="M167.285 195.413L169.278 187.957V187.958L167.285 195.413Z" fill="url(#paint3_linear_481_11)"/>
<path fill-rule="evenodd" clip-rule="evenodd" d="M169.278 187.958V187.957L170.928 181.787L169.278 187.958Z" fill="url(#paint4_linear_481_11)"/>
<path fill-rule="evenodd" clip-rule="evenodd" d="M31.5855 129.607L30.2407 129.595L31.5855 129.607Z" fill="url(#paint5_linear_481_11)"/>
<path d="M164.166 244.494C163.553 247.523 161.915 250.13 159.656 251.981C157.397 253.828 154.516 254.918 151.424 254.918H63.6446C57.4623 254.918 52.1325 250.556 50.9031 244.494H164.166Z" fill="#C6D3E3"/>
<path d="M51.1988 244.733C52.5092 250.513 57.6972 254.678 63.6447 254.678H151.424C154.36 254.678 157.23 253.655 159.505 251.795C161.703 249.995 163.246 247.496 163.871 244.733H51.1988ZM151.424 255.156H63.6447C57.3734 255.156 51.9161 250.692 50.6698 244.542L50.6118 244.254H164.458L164.4 244.541C163.796 247.526 162.166 250.233 159.807 252.165C157.447 254.094 154.47 255.156 151.424 255.156Z" fill="#000072"/>
<path d="M52.7978 245.927C54.4541 250.395 58.7673 253.485 63.6455 253.485H151.426C156.304 253.485 160.617 250.395 162.275 245.927H52.7978ZM151.426 256.349H63.6455C56.8083 256.349 50.8599 251.484 49.502 244.779C49.4166 244.358 49.5248 243.921 49.7967 243.588C50.0686 243.255 50.4753 243.062 50.9056 243.062H164.167C164.596 243.062 165.003 243.255 165.275 243.588C165.547 243.921 165.655 244.358 165.57 244.779C164.212 251.484 158.263 256.349 151.426 256.349Z" fill="#000072"/>
<path d="M151.426 253.485H107.083C111.174 252.457 115 250.891 118.549 248.764H153.403C155.807 248.764 157.95 247.669 159.343 245.927H162.275C160.617 250.395 156.304 253.485 151.426 253.485Z" fill="#8A93C1"/>
<path d="M151.424 254.918H97.1287C100.602 254.753 103.922 254.279 107.083 253.485H151.426C156.304 253.485 160.617 250.395 162.275 245.927H159.343C159.694 245.488 159.998 245.008 160.246 244.494H164.166C163.554 247.523 161.915 250.13 159.656 251.981C157.397 253.828 154.516 254.918 151.424 254.918Z" fill="#000072"/>
<path d="M164.132 189.421L159.55 241.697C159.271 244.887 156.603 247.333 153.401 247.333H61.6681C58.4707 247.333 55.8024 244.887 55.519 241.697L50.9418 189.421C50.4894 184.288 54.5351 179.869 59.6835 179.869H155.386C157.071 179.869 158.638 180.341 159.968 181.157C162.704 182.839 164.436 185.97 164.132 189.421Z" fill="#C6D3E3"/>
<path d="M59.6834 180.107C57.2958 180.107 55.0023 181.118 53.3892 182.881C51.7751 184.644 50.969 187.02 51.1793 189.4L55.7565 241.675C56.0302 244.764 58.5719 247.094 61.668 247.094H153.401C156.501 247.094 159.042 244.764 159.312 241.675L163.894 189.4C164.181 186.153 162.628 183.072 159.843 181.36C158.505 180.54 156.963 180.107 155.386 180.107H59.6834ZM153.401 247.571H61.668C58.3228 247.571 55.577 245.055 55.2813 241.718L50.7041 189.443C50.4823 186.929 51.3333 184.42 53.0371 182.558C54.74 180.697 57.1629 179.629 59.6834 179.629H155.386C157.052 179.629 158.68 180.087 160.093 180.953C163.033 182.76 164.672 186.013 164.369 189.443L159.788 241.717C159.496 245.055 156.75 247.571 153.401 247.571Z" fill="#000072"/>
<path d="M59.1615 245.191C57.9338 244.431 57.0828 243.12 56.9473 241.57L52.3656 189.295C52.1835 187.217 52.8585 185.225 54.2675 183.687C55.6756 182.149 57.5994 181.301 59.6843 181.301H155.387C156.963 181.301 158.446 181.786 159.685 182.685C159.669 182.775 159.652 182.866 159.635 182.956C159.418 182.94 159.198 182.931 158.975 182.931H63.2723C58.1248 182.931 54.0791 187.351 54.5306 192.485L59.1088 244.76C59.1219 244.905 59.1395 245.049 59.1615 245.191Z" fill="#F1F4F8"/>
<path d="M59.6842 181.301C57.5993 181.301 55.6755 182.149 54.2674 183.687C52.8585 185.225 52.1834 187.217 52.3655 189.295L56.9472 241.57C57.1637 244.038 59.1932 245.898 61.6687 245.898H153.403C155.879 245.898 157.909 244.038 158.125 241.57L162.706 189.295C162.888 187.217 162.213 185.225 160.805 183.687C159.396 182.149 157.472 181.301 155.387 181.301H59.6842ZM153.403 248.764H61.6687C57.6979 248.764 54.4417 245.779 54.0941 241.821L49.5132 189.545C49.2633 186.699 50.227 183.858 52.1561 181.751C54.0843 179.645 56.8293 178.437 59.6842 178.437H155.387C158.243 178.437 160.987 179.645 162.916 181.751C164.844 183.858 165.808 186.699 165.559 189.545L160.977 241.821C160.631 245.779 157.374 248.764 153.403 248.764Z" fill="#000072"/>
<path d="M153.403 245.898H83.5562C126.198 239.666 152.817 219.754 159.635 182.956C159.788 182.967 159.939 182.982 160.089 183.001C160.34 183.211 160.579 183.44 160.805 183.687C162.213 185.225 162.888 187.217 162.706 189.295L158.125 241.57C157.909 244.038 155.879 245.898 153.403 245.898Z" fill="#8A93C1"/>
<path d="M160.089 183.001C159.939 182.982 159.788 182.967 159.635 182.956C159.652 182.866 159.669 182.775 159.685 182.685C159.823 182.786 159.958 182.891 160.089 183.001Z" fill="#A8AAD0"/>
<path d="M153.401 247.333H70.6543C75.1048 246.982 79.4066 246.505 83.556 245.898H153.403C155.879 245.898 157.909 244.038 158.125 241.57L162.706 189.295C162.888 187.217 162.213 185.225 160.805 183.687C160.579 183.44 160.339 183.211 160.089 183.001C159.957 182.891 159.823 182.786 159.685 182.685C159.778 182.176 159.866 181.668 159.951 181.152L159.968 181.157C162.704 182.839 164.436 185.97 164.132 189.421L159.55 241.697C159.271 244.887 156.603 247.333 153.401 247.333Z" fill="#000072"/>
<path d="M68.0265 224.296C66.643 224.296 65.4629 223.243 65.3318 221.837L63.3578 200.733C63.2178 199.242 64.3126 197.92 65.8026 197.78L71.5494 197.242C71.6347 197.234 71.7201 197.231 71.8046 197.231C73.1881 197.231 74.3682 198.285 74.4994 199.689L76.4734 220.794C76.6134 222.284 75.5185 223.606 74.0286 223.746L68.2817 224.284C68.1964 224.292 68.111 224.296 68.0265 224.296Z" fill="#D7E0EB"/>
<path d="M100.102 205.311C100.236 206.06 100.303 206.676 100.303 207.157C100.303 207.532 100.289 207.887 100.263 208.221C100.236 208.556 100.196 208.857 100.142 209.125L86.9811 214.223L100.142 219.121C100.196 219.415 100.236 219.723 100.263 220.044C100.289 220.365 100.303 220.687 100.303 221.008C100.303 221.409 100.289 221.784 100.263 222.132C100.236 222.48 100.182 222.814 100.102 223.136L83.41 216.351C83.2495 215.682 83.1692 214.946 83.1692 214.143C83.1692 213.42 83.2495 212.738 83.41 212.095L100.102 205.311Z" fill="#3D3144"/>
<path d="M110.445 199.168C110.767 199.115 111.081 199.075 111.388 199.048C111.696 199.021 112.024 199.008 112.372 199.008C112.666 199.008 112.98 199.021 113.314 199.048C113.649 199.075 113.99 199.115 114.338 199.168L104.547 228.033C104.226 228.087 103.905 228.127 103.584 228.154C103.263 228.181 102.929 228.194 102.581 228.194C102.287 228.194 101.979 228.181 101.658 228.154C101.337 228.127 101.016 228.087 100.695 228.033L110.445 199.168Z" fill="#3D3144"/>
<path d="M114.931 223.136C114.877 222.761 114.837 222.42 114.811 222.112C114.784 221.804 114.77 221.53 114.77 221.289C114.77 220.914 114.784 220.559 114.811 220.225C114.837 219.89 114.877 219.589 114.931 219.322L128.052 214.223L114.931 209.325C114.851 209.031 114.797 208.716 114.77 208.382C114.744 208.047 114.73 207.733 114.73 207.438C114.73 207.01 114.75 206.622 114.79 206.274C114.831 205.926 114.877 205.605 114.931 205.311L131.663 212.095C131.717 212.443 131.77 212.791 131.824 213.139C131.877 213.487 131.904 213.875 131.904 214.303C131.904 215.026 131.824 215.709 131.663 216.351L114.931 223.136Z" fill="#3D3144"/>
<defs>
<linearGradient id="paint0_linear_481_11" x1="107.384" y1="130.131" x2="106.568" y2="247.646" gradientUnits="userSpaceOnUse">
<stop stop-color="#50E9A3"/>
<stop offset="1" stop-color="#50E9A3"/>
</linearGradient>
<linearGradient id="paint1_linear_481_11" x1="180.341" y1="145.22" x2="180.341" y2="147.949" gradientUnits="userSpaceOnUse">
<stop stop-color="white"/>
<stop offset="1" stop-color="white" stop-opacity="0"/>
</linearGradient>
<linearGradient id="paint2_linear_481_11" x1="107.383" y1="130.131" x2="106.567" y2="247.644" gradientUnits="userSpaceOnUse">
<stop stop-color="#46A0B5"/>
<stop offset="1" stop-color="#46A0B5"/>
</linearGradient>
<linearGradient id="paint3_linear_481_11" x1="107.384" y1="130.131" x2="106.568" y2="247.644" gradientUnits="userSpaceOnUse">
<stop stop-color="#3B93B6"/>
<stop offset="1" stop-color="#3B93B6"/>
</linearGradient>
<linearGradient id="paint4_linear_481_11" x1="107.38" y1="130.132" x2="106.563" y2="247.644" gradientUnits="userSpaceOnUse">
<stop stop-color="#2073B9"/>
<stop offset="1" stop-color="#2073B9"/>
</linearGradient>
<linearGradient id="paint5_linear_481_11" x1="107.384" y1="130.133" x2="106.568" y2="248.13" gradientUnits="userSpaceOnUse">
<stop stop-color="#3F8CA2"/>
<stop offset="1" stop-color="#3F8CA2"/>
</linearGradient>
</defs>
</svg>
